<svg width="226" height="226" viewBox="0 0 226 226" fill="none" xmlns="http://www.w3.org/2000/svg">
<circle cx="113" cy="113" r="75" fill="#F0F1F2"/>
<g filter="url(#filter0_d_202_139)">
<rect x="52" y="52" width="122" height="122" rx="6.48649" fill="#FFFEFF"/>
</g>
<rect opacity="0.11" x="59" y="60" width="108" height="73" rx="3" fill="#B972A6"/>
<path fill-rule="evenodd" clip-rule="evenodd" d="M152 85C154.122 85 156.157 84.1571 157.657 82.6569C159.157 81.1566 160 79.1217 160 77C160 74.8783 159.157 72.8434 157.657 71.3431C156.157 69.8429 154.122 69 152 69C149.878 69 147.843 69.8429 146.343 71.3431C144.843 72.8434 144 74.8783 144 77C144 79.1217 144.843 81.1566 146.343 82.6569C147.843 84.1571 149.878 85 152 85V85ZM155.707 75.707C155.889 75.5184 155.99 75.2658 155.988 75.0036C155.985 74.7414 155.88 74.4906 155.695 74.3052C155.509 74.1198 155.259 74.0146 154.996 74.0123C154.734 74.01 154.482 74.1108 154.293 74.293L151 77.586L149.707 76.293C149.518 76.1108 149.266 76.01 149.004 76.0123C148.741 76.0146 148.491 76.1198 148.305 76.3052C148.12 76.4906 148.015 76.7414 148.012 77.0036C148.01 77.2658 148.111 77.5184 148.293 77.707L150.293 79.707C150.481 79.8945 150.735 79.9998 151 79.9998C151.265 79.9998 151.519 79.8945 151.707 79.707L155.707 75.707V75.707Z" fill="#539A97"/>
<rect x="91" y="71" width="39" height="5" rx="1" fill="#D9D9D9"/>
<rect x="91" y="79" width="25" height="5" rx="1" fill="#D9D9D9"/>
<rect x="91" y="110" width="39" height="5" rx="1" fill="#D9D9D9"/>
<rect x="91" y="118" width="25" height="5" rx="1" fill="#D9D9D9"/>
<rect x="91" y="144" width="39" height="5" rx="1" fill="#D9D9D9"/>
<rect x="91" y="152" width="25" height="5" rx="1" fill="#D9D9D9"/>
<path fill-rule="evenodd" clip-rule="evenodd" d="M152 124C154.122 124 156.157 123.157 157.657 121.657C159.157 120.157 160 118.122 160 116C160 113.878 159.157 111.843 157.657 110.343C156.157 108.843 154.122 108 152 108C149.878 108 147.843 108.843 146.343 110.343C144.843 111.843 144 113.878 144 116C144 118.122 144.843 120.157 146.343 121.657C147.843 123.157 149.878 124 152 124V124ZM155.707 114.707C155.889 114.518 155.99 114.266 155.988 114.004C155.985 113.741 155.88 113.491 155.695 113.305C155.509 113.12 155.259 113.015 154.996 113.012C154.734 113.01 154.482 113.111 154.293 113.293L151 116.586L149.707 115.293C149.518 115.111 149.266 115.01 149.004 115.012C148.741 115.015 148.491 115.12 148.305 115.305C148.12 115.491 148.015 115.741 148.012 116.004C148.01 116.266 148.111 116.518 148.293 116.707L150.293 118.707C150.481 118.894 150.735 119 151 119C151.265 119 151.519 118.894 151.707 118.707L155.707 114.707V114.707Z" fill="#539A97"/>
<path fill-rule="evenodd" clip-rule="evenodd" d="M188 134C188 131.239 185.761 129 183 129L116 129C113.239 129 111 131.239 111 134V134C111 135.222 110.082 136.222 109.089 136.934C107.824 137.841 107 139.324 107 141L107 169C107 170.676 107.824 172.159 109.089 173.066C110.082 173.778 111 174.778 111 176V176C111 178.761 113.239 181 116 181H183C185.761 181 188 178.761 188 176V176C188 174.778 188.918 173.778 189.911 173.066C191.176 172.159 192 170.676 192 169V141C192 139.324 191.176 137.841 189.911 136.934C188.918 136.222 188 135.222 188 134V134Z" fill="#B972A6"/>
<g style="mix-blend-mode:screen" opacity="0.2">
<path fill-rule="evenodd" clip-rule="evenodd" d="M185.038 136.615C185.038 134.066 182.972 132 180.423 132L118.577 132C116.028 132 113.962 134.066 113.962 136.615V136.615C113.962 137.436 113.337 138.104 112.599 138.463C111.06 139.211 110 140.789 110 142.615L110 167.385C110 169.211 111.06 170.789 112.599 171.537C113.337 171.896 113.962 172.564 113.962 173.385V173.385C113.962 175.934 116.028 178 118.577 178L180.423 178C182.972 178 185.038 175.934 185.038 173.385V173.385C185.038 172.564 185.663 171.896 186.401 171.537C187.94 170.789 189 169.211 189 167.385V142.615C189 140.789 187.94 139.211 186.401 138.463C185.663 138.104 185.038 137.436 185.038 136.615V136.615Z" fill="#B972A6"/>
</g>
<path d="M147.826 138.977V143.907H145.253V138.977H147.826ZM147.511 166.087V170.536H144.954V166.087H147.511ZM149.669 160.675C149.669 160.044 149.547 159.496 149.304 159.031C149.071 158.566 148.678 158.151 148.125 157.786C147.583 157.421 146.852 157.072 145.934 156.74C144.506 156.22 143.255 155.65 142.182 155.03C141.108 154.399 140.272 153.619 139.675 152.689C139.088 151.76 138.795 150.587 138.795 149.17C138.795 147.809 139.11 146.63 139.741 145.634C140.383 144.627 141.274 143.852 142.414 143.31C143.554 142.756 144.877 142.479 146.382 142.479C147.555 142.479 148.606 142.657 149.536 143.011C150.477 143.354 151.279 143.857 151.943 144.521C152.618 145.186 153.133 146.005 153.487 146.979C153.853 147.941 154.035 149.043 154.035 150.282H149.652C149.652 149.596 149.575 148.987 149.42 148.456C149.265 147.925 149.044 147.477 148.756 147.111C148.468 146.735 148.119 146.453 147.71 146.265C147.312 146.076 146.858 145.982 146.349 145.982C145.618 145.982 145.015 146.121 144.539 146.397C144.074 146.674 143.731 147.05 143.51 147.526C143.299 148.002 143.194 148.55 143.194 149.17C143.194 149.768 143.305 150.293 143.526 150.747C143.759 151.19 144.146 151.594 144.688 151.959C145.242 152.324 146 152.695 146.963 153.071C148.402 153.603 149.652 154.189 150.715 154.831C151.777 155.462 152.602 156.237 153.188 157.155C153.775 158.074 154.068 159.236 154.068 160.642C154.068 162.08 153.736 163.298 153.072 164.294C152.419 165.29 151.501 166.048 150.316 166.568C149.132 167.089 147.754 167.349 146.183 167.349C145.175 167.349 144.179 167.216 143.194 166.95C142.209 166.685 141.313 166.253 140.505 165.655C139.708 165.047 139.072 164.244 138.596 163.248C138.12 162.241 137.882 161.007 137.882 159.546H142.281C142.281 160.387 142.392 161.084 142.613 161.638C142.835 162.191 143.133 162.634 143.51 162.966C143.886 163.287 144.307 163.514 144.771 163.646C145.236 163.779 145.707 163.846 146.183 163.846C146.957 163.846 147.599 163.713 148.108 163.447C148.629 163.182 149.016 162.811 149.271 162.335C149.536 161.848 149.669 161.295 149.669 160.675Z" fill="white"/>
<circle cx="179" cy="155" r="3" fill="white"/>
<circle cx="75" cy="78" r="11" fill="#B972A6"/>
<path d="M75.752 71.4609V73.4912H74.6924V71.4609H75.752ZM75.6221 82.624V84.4561H74.5693V82.624H75.6221ZM76.5107 80.3955C76.5107 80.1357 76.4606 79.9102 76.3604 79.7188C76.2646 79.5273 76.1029 79.3564 75.875 79.2061C75.6517 79.0557 75.3509 78.9121 74.9727 78.7754C74.3848 78.5612 73.8698 78.3265 73.4277 78.0713C72.9857 77.8115 72.6416 77.4902 72.3955 77.1074C72.154 76.7246 72.0332 76.2415 72.0332 75.6582C72.0332 75.0977 72.1631 74.6123 72.4229 74.2021C72.6872 73.7874 73.054 73.4684 73.5234 73.2451C73.9928 73.0173 74.5374 72.9033 75.1572 72.9033C75.6403 72.9033 76.0732 72.9762 76.4561 73.1221C76.8434 73.2633 77.1738 73.4707 77.4473 73.7441C77.7253 74.0176 77.9372 74.3548 78.083 74.7559C78.2334 75.1523 78.3086 75.6058 78.3086 76.1162H76.5039C76.5039 75.8337 76.472 75.583 76.4082 75.3643C76.3444 75.1455 76.2533 74.9609 76.1348 74.8105C76.0163 74.6556 75.8727 74.5394 75.7041 74.4619C75.54 74.3844 75.3532 74.3457 75.1436 74.3457C74.8428 74.3457 74.5944 74.4027 74.3984 74.5166C74.207 74.6305 74.0658 74.7855 73.9746 74.9814C73.888 75.1774 73.8447 75.403 73.8447 75.6582C73.8447 75.9043 73.8903 76.1208 73.9814 76.3076C74.0771 76.4899 74.2367 76.6562 74.46 76.8066C74.6878 76.957 75 77.1097 75.3965 77.2646C75.9889 77.4834 76.5039 77.7249 76.9414 77.9893C77.3789 78.249 77.7184 78.568 77.96 78.9463C78.2015 79.3245 78.3223 79.8031 78.3223 80.3818C78.3223 80.9743 78.1855 81.4756 77.9121 81.8857C77.6432 82.2959 77.265 82.6081 76.7773 82.8223C76.2897 83.0365 75.7223 83.1436 75.0752 83.1436C74.6605 83.1436 74.2503 83.0889 73.8447 82.9795C73.4391 82.8701 73.07 82.6924 72.7373 82.4463C72.4092 82.1956 72.1471 81.8652 71.9512 81.4551C71.7552 81.0404 71.6572 80.5322 71.6572 79.9307H73.4688C73.4688 80.277 73.5143 80.5641 73.6055 80.792C73.6966 81.0199 73.8197 81.2021 73.9746 81.3389C74.1296 81.471 74.3027 81.5645 74.4941 81.6191C74.6855 81.6738 74.8792 81.7012 75.0752 81.7012C75.3942 81.7012 75.6585 81.6465 75.8682 81.5371C76.0824 81.4277 76.2419 81.2751 76.3467 81.0791C76.4561 80.8786 76.5107 80.6507 76.5107 80.3955Z" fill="white"/>
<circle cx="75" cy="115" r="11" fill="#B972A6"/>
<path d="M75.752 108.461V110.491H74.6924V108.461H75.752ZM75.6221 119.624V121.456H74.5693V119.624H75.6221ZM76.5107 117.396C76.5107 117.136 76.4606 116.91 76.3604 116.719C76.2646 116.527 76.1029 116.356 75.875 116.206C75.6517 116.056 75.3509 115.912 74.9727 115.775C74.3848 115.561 73.8698 115.326 73.4277 115.071C72.9857 114.812 72.6416 114.49 72.3955 114.107C72.154 113.725 72.0332 113.242 72.0332 112.658C72.0332 112.098 72.1631 111.612 72.4229 111.202C72.6872 110.787 73.054 110.468 73.5234 110.245C73.9928 110.017 74.5374 109.903 75.1572 109.903C75.6403 109.903 76.0732 109.976 76.4561 110.122C76.8434 110.263 77.1738 110.471 77.4473 110.744C77.7253 111.018 77.9372 111.355 78.083 111.756C78.2334 112.152 78.3086 112.606 78.3086 113.116H76.5039C76.5039 112.834 76.472 112.583 76.4082 112.364C76.3444 112.146 76.2533 111.961 76.1348 111.811C76.0163 111.656 75.8727 111.539 75.7041 111.462C75.54 111.384 75.3532 111.346 75.1436 111.346C74.8428 111.346 74.5944 111.403 74.3984 111.517C74.207 111.631 74.0658 111.785 73.9746 111.981C73.888 112.177 73.8447 112.403 73.8447 112.658C73.8447 112.904 73.8903 113.121 73.9814 113.308C74.0771 113.49 74.2367 113.656 74.46 113.807C74.6878 113.957 75 114.11 75.3965 114.265C75.9889 114.483 76.5039 114.725 76.9414 114.989C77.3789 115.249 77.7184 115.568 77.96 115.946C78.2015 116.325 78.3223 116.803 78.3223 117.382C78.3223 117.974 78.1855 118.476 77.9121 118.886C77.6432 119.296 77.265 119.608 76.7773 119.822C76.2897 120.036 75.7223 120.144 75.0752 120.144C74.6605 120.144 74.2503 120.089 73.8447 119.979C73.4391 119.87 73.07 119.692 72.7373 119.446C72.4092 119.196 72.1471 118.865 71.9512 118.455C71.7552 118.04 71.6572 117.532 71.6572 116.931H73.4688C73.4688 117.277 73.5143 117.564 73.6055 117.792C73.6966 118.02 73.8197 118.202 73.9746 118.339C74.1296 118.471 74.3027 118.564 74.4941 118.619C74.6855 118.674 74.8792 118.701 75.0752 118.701C75.3942 118.701 75.6585 118.646 75.8682 118.537C76.0824 118.428 76.2419 118.275 76.3467 118.079C76.4561 117.879 76.5107 117.651 76.5107 117.396Z" fill="white"/>
<circle cx="75" cy="150" r="11" fill="#BDBDBD"/>
<path d="M75.752 143.461V145.491H74.6924V143.461H75.752ZM75.6221 154.624V156.456H74.5693V154.624H75.6221ZM76.5107 152.396C76.5107 152.136 76.4606 151.91 76.3604 151.719C76.2646 151.527 76.1029 151.356 75.875 151.206C75.6517 151.056 75.3509 150.912 74.9727 150.775C74.3848 150.561 73.8698 150.326 73.4277 150.071C72.9857 149.812 72.6416 149.49 72.3955 149.107C72.154 148.725 72.0332 148.242 72.0332 147.658C72.0332 147.098 72.1631 146.612 72.4229 146.202C72.6872 145.787 73.054 145.468 73.5234 145.245C73.9928 145.017 74.5374 144.903 75.1572 144.903C75.6403 144.903 76.0732 144.976 76.4561 145.122C76.8434 145.263 77.1738 145.471 77.4473 145.744C77.7253 146.018 77.9372 146.355 78.083 146.756C78.2334 147.152 78.3086 147.606 78.3086 148.116H76.5039C76.5039 147.834 76.472 147.583 76.4082 147.364C76.3444 147.146 76.2533 146.961 76.1348 146.811C76.0163 146.656 75.8727 146.539 75.7041 146.462C75.54 146.384 75.3532 146.346 75.1436 146.346C74.8428 146.346 74.5944 146.403 74.3984 146.517C74.207 146.631 74.0658 146.785 73.9746 146.981C73.888 147.177 73.8447 147.403 73.8447 147.658C73.8447 147.904 73.8903 148.121 73.9814 148.308C74.0771 148.49 74.2367 148.656 74.46 148.807C74.6878 148.957 75 149.11 75.3965 149.265C75.9889 149.483 76.5039 149.725 76.9414 149.989C77.3789 150.249 77.7184 150.568 77.96 150.946C78.2015 151.325 78.3223 151.803 78.3223 152.382C78.3223 152.974 78.1855 153.476 77.9121 153.886C77.6432 154.296 77.265 154.608 76.7773 154.822C76.2897 155.036 75.7223 155.144 75.0752 155.144C74.6605 155.144 74.2503 155.089 73.8447 154.979C73.4391 154.87 73.07 154.692 72.7373 154.446C72.4092 154.196 72.1471 153.865 71.9512 153.455C71.7552 153.04 71.6572 152.532 71.6572 151.931H73.4688C73.4688 152.277 73.5143 152.564 73.6055 152.792C73.6966 153.02 73.8197 153.202 73.9746 153.339C74.1296 153.471 74.3027 153.564 74.4941 153.619C74.6855 153.674 74.8792 153.701 75.0752 153.701C75.3942 153.701 75.6585 153.646 75.8682 153.537C76.0824 153.428 76.2419 153.275 76.3467 153.079C76.4561 152.879 76.5107 152.651 76.5107 152.396Z" fill="white"/>
<defs>
<filter id="filter0_d_202_139" x="45.5135" y="45.5135" width="134.973" height="134.973" filterUnits="userSpaceOnUse" color-interpolation-filters="sRGB">
<feFlood flood-opacity="0" result="BackgroundImageFix"/>
<feColorMatrix in="SourceAlpha" type="matrix" values="0 0 0 0 0 0 0 0 0 0 0 0 0 0 0 0 0 0 127 0" result="hardAlpha"/>
<feOffset/>
<feGaussianBlur stdDeviation="3.24324"/>
<feComposite in2="hardAlpha" operator="out"/>
<feColorMatrix type="matrix" values="0 0 0 0 0 0 0 0 0 0 0 0 0 0 0 0 0 0 0.15 0"/>
<feBlend mode="normal" in2="BackgroundImageFix" result="effect1_dropShadow_202_139"/>
<feBlend mode="normal" in="SourceGraphic" in2="effect1_dropShadow_202_139" result="shape"/>
</filter>
</defs>
</svg>
