<svg width="226" height="226" viewBox="0 0 226 226" fill="none" xmlns="http://www.w3.org/2000/svg">
<circle cx="113" cy="113" r="75" fill="#F0F1F2"/>
<g filter="url(#filter0_d_17_104)">
<rect x="52" y="52" width="122" height="122" rx="6.48649" fill="#FFFEFF"/>
</g>
<rect x="59" y="59" width="108" height="35" rx="3.24324" fill="#F0F1F2"/>
<path fill-rule="evenodd" clip-rule="evenodd" d="M153.5 83C155.224 83 156.877 82.3152 158.096 81.0962C159.315 79.8772 160 78.2239 160 76.5C160 74.7761 159.315 73.1228 158.096 71.9038C156.877 70.6848 155.224 70 153.5 70C151.776 70 150.123 70.6848 148.904 71.9038C147.685 73.1228 147 74.7761 147 76.5C147 78.2239 147.685 79.8772 148.904 81.0962C150.123 82.3152 151.776 83 153.5 83ZM156.512 75.4494C156.66 75.2962 156.742 75.091 156.74 74.8779C156.738 74.6649 156.653 74.4611 156.502 74.3105C156.351 74.1598 156.148 74.0744 155.935 74.0725C155.722 74.0707 155.516 74.1526 155.363 74.3006L152.688 76.9761L151.637 75.9256C151.484 75.7776 151.278 75.6957 151.065 75.6975C150.852 75.6994 150.649 75.7848 150.498 75.9355C150.347 76.0861 150.262 76.2899 150.26 76.5029C150.258 76.716 150.34 76.9212 150.488 77.0744L152.113 78.6994C152.265 78.8518 152.472 78.9373 152.688 78.9373C152.903 78.9373 153.11 78.8518 153.262 78.6994L156.512 75.4494Z" fill="#399C97"/>
<rect x="91" y="70" width="39" height="5" rx="1" fill="#D9D9D9"/>
<rect x="91" y="78" width="25" height="5" rx="1" fill="#D9D9D9"/>
<circle cx="75" cy="76" r="10" fill="#9FA5AB"/>
<path d="M76.2269 78.6915C76.2269 77.996 76.4714 77.4037 76.9605 76.9147C77.4496 76.4301 78.0396 76.1878 78.7306 76.1878C79.4216 76.1878 80.0116 76.4323 80.5007 76.9214C80.9897 77.4105 81.2343 78.0005 81.2343 78.6915C81.2343 79.3825 80.9897 79.9725 80.5007 80.4616C80.0116 80.9506 79.4216 81.1952 78.7306 81.1952C78.0396 81.1952 77.4496 80.9506 76.9605 80.4616C76.4714 79.9725 76.2269 79.3825 76.2269 78.6915ZM70.4186 75.5619C69.9295 75.0728 69.685 74.4828 69.685 73.7918C69.685 73.1008 69.9295 72.5108 70.4186 72.0217C70.9076 71.5326 71.4977 71.2881 72.1887 71.2881C72.8796 71.2881 73.4697 71.5326 73.9587 72.0217C74.4478 72.5108 74.6924 73.1008 74.6924 73.7918C74.6924 74.4828 74.4478 75.0728 73.9587 75.5619C73.4742 76.0509 72.8841 76.2955 72.1887 76.2955C71.4977 76.2955 70.9076 76.0509 70.4186 75.5619ZM73.2453 81.2558H72.2021L77.6604 71.241H78.6835L73.2453 81.2558ZM77.9768 79.4453C78.1832 79.6562 78.4344 79.7616 78.7306 79.7616C79.0267 79.7616 79.278 79.6584 79.4844 79.452C79.6953 79.2411 79.8007 78.9876 79.8007 78.6915C79.8007 78.3953 79.6953 78.1441 79.4844 77.9377C79.278 77.7268 79.0267 77.6214 78.7306 77.6214C78.4344 77.6214 78.1809 77.7268 77.97 77.9377C77.7636 78.1441 77.6604 78.3953 77.6604 78.6915C77.6604 78.9876 77.7659 79.2389 77.9768 79.4453ZM71.4349 74.5456C71.6413 74.7565 71.8925 74.8619 72.1887 74.8619C72.4848 74.8619 72.7361 74.7587 72.9425 74.5523C73.1533 74.3414 73.2588 74.0879 73.2588 73.7918C73.2588 73.4956 73.1533 73.2444 72.9425 73.038C72.7361 72.8271 72.4848 72.7217 72.1887 72.7217C71.8925 72.7217 71.639 72.8271 71.4281 73.038C71.2217 73.2444 71.1185 73.4956 71.1185 73.7918C71.1185 74.0879 71.224 74.3392 71.4349 74.5456Z" fill="white"/>
<path fill-rule="evenodd" clip-rule="evenodd" d="M153.5 120C155.224 120 156.877 119.315 158.096 118.096C159.315 116.877 160 115.224 160 113.5C160 111.776 159.315 110.123 158.096 108.904C156.877 107.685 155.224 107 153.5 107C151.776 107 150.123 107.685 148.904 108.904C147.685 110.123 147 111.776 147 113.5C147 115.224 147.685 116.877 148.904 118.096C150.123 119.315 151.776 120 153.5 120ZM153.138 111.199C153.016 111.117 152.874 111.07 152.727 111.063C152.58 111.056 152.434 111.089 152.304 111.158C152.174 111.228 152.066 111.331 151.99 111.457C151.915 111.584 151.875 111.728 151.875 111.875V115.125C151.875 115.272 151.915 115.416 151.99 115.543C152.066 115.669 152.174 115.772 152.304 115.842C152.434 115.911 152.58 115.944 152.727 115.937C152.874 115.93 153.016 115.883 153.138 115.801L155.576 114.176C155.687 114.102 155.778 114.001 155.842 113.883C155.905 113.765 155.938 113.634 155.938 113.5C155.938 113.366 155.905 113.235 155.842 113.117C155.778 112.999 155.687 112.898 155.576 112.824L153.138 111.199Z" fill="#E0A143"/>
<rect x="91" y="108" width="39" height="5" rx="1" fill="#D9D9D9"/>
<rect x="91" y="116" width="25" height="5" rx="1" fill="#D9D9D9"/>
<circle cx="75" cy="114" r="10" fill="#CD5747"/>
<path d="M75.2269 116.691C75.2269 115.996 75.4714 115.404 75.9605 114.915C76.4496 114.43 77.0396 114.188 77.7306 114.188C78.4216 114.188 79.0116 114.432 79.5007 114.921C79.9897 115.41 80.2343 116.001 80.2343 116.691C80.2343 117.382 79.9897 117.972 79.5007 118.462C79.0116 118.951 78.4216 119.195 77.7306 119.195C77.0396 119.195 76.4496 118.951 75.9605 118.462C75.4714 117.972 75.2269 117.382 75.2269 116.691ZM69.4186 113.562C68.9295 113.073 68.685 112.483 68.685 111.792C68.685 111.101 68.9295 110.511 69.4186 110.022C69.9076 109.533 70.4977 109.288 71.1887 109.288C71.8796 109.288 72.4697 109.533 72.9587 110.022C73.4478 110.511 73.6924 111.101 73.6924 111.792C73.6924 112.483 73.4478 113.073 72.9587 113.562C72.4742 114.051 71.8841 114.295 71.1887 114.295C70.4977 114.295 69.9076 114.051 69.4186 113.562ZM72.2453 119.256H71.2021L76.6604 109.241H77.6835L72.2453 119.256ZM76.9768 117.445C77.1832 117.656 77.4344 117.762 77.7306 117.762C78.0267 117.762 78.278 117.658 78.4844 117.452C78.6953 117.241 78.8007 116.988 78.8007 116.691C78.8007 116.395 78.6953 116.144 78.4844 115.938C78.278 115.727 78.0267 115.621 77.7306 115.621C77.4344 115.621 77.1809 115.727 76.97 115.938C76.7636 116.144 76.6604 116.395 76.6604 116.691C76.6604 116.988 76.7659 117.239 76.9768 117.445ZM70.4349 112.546C70.6413 112.756 70.8925 112.862 71.1887 112.862C71.4848 112.862 71.7361 112.759 71.9425 112.552C72.1533 112.341 72.2588 112.088 72.2588 111.792C72.2588 111.496 72.1533 111.244 71.9425 111.038C71.7361 110.827 71.4848 110.722 71.1887 110.722C70.8925 110.722 70.639 110.827 70.4281 111.038C70.2217 111.244 70.1185 111.496 70.1185 111.792C70.1185 112.088 70.224 112.339 70.4349 112.546Z" fill="white"/>
<path fill-rule="evenodd" clip-rule="evenodd" d="M151.5 154C153.224 154 154.877 153.315 156.096 152.096C157.315 150.877 158 149.224 158 147.5C158 145.776 157.315 144.123 156.096 142.904C154.877 141.685 153.224 141 151.5 141C149.776 141 148.123 141.685 146.904 142.904C145.685 144.123 145 145.776 145 147.5C145 149.224 145.685 150.877 146.904 152.096C148.123 153.315 149.776 154 151.5 154ZM151.138 145.199C151.016 145.117 150.874 145.07 150.727 145.063C150.58 145.056 150.434 145.089 150.304 145.158C150.174 145.228 150.066 145.331 149.99 145.457C149.915 145.584 149.875 145.728 149.875 145.875V149.125C149.875 149.272 149.915 149.416 149.99 149.543C150.066 149.669 150.174 149.772 150.304 149.842C150.434 149.911 150.58 149.944 150.727 149.937C150.874 149.93 151.016 149.883 151.138 149.801L153.576 148.176C153.687 148.102 153.778 148.001 153.842 147.883C153.905 147.765 153.938 147.634 153.938 147.5C153.938 147.366 153.905 147.235 153.842 147.117C153.778 146.999 153.687 146.898 153.576 146.824L151.138 145.199Z" fill="#E0A143"/>
<rect x="91" y="142" width="39" height="5" rx="1" fill="#D9D9D9"/>
<rect x="91" y="150" width="25" height="5" rx="1" fill="#D9D9D9"/>
<circle cx="75" cy="148" r="10" fill="#CD5747"/>
<path d="M75.2269 150.691C75.2269 149.996 75.4714 149.404 75.9605 148.915C76.4496 148.43 77.0396 148.188 77.7306 148.188C78.4216 148.188 79.0116 148.432 79.5007 148.921C79.9897 149.41 80.2343 150.001 80.2343 150.691C80.2343 151.382 79.9897 151.972 79.5007 152.462C79.0116 152.951 78.4216 153.195 77.7306 153.195C77.0396 153.195 76.4496 152.951 75.9605 152.462C75.4714 151.972 75.2269 151.382 75.2269 150.691ZM69.4186 147.562C68.9295 147.073 68.685 146.483 68.685 145.792C68.685 145.101 68.9295 144.511 69.4186 144.022C69.9076 143.533 70.4977 143.288 71.1887 143.288C71.8796 143.288 72.4697 143.533 72.9587 144.022C73.4478 144.511 73.6924 145.101 73.6924 145.792C73.6924 146.483 73.4478 147.073 72.9587 147.562C72.4742 148.051 71.8841 148.295 71.1887 148.295C70.4977 148.295 69.9076 148.051 69.4186 147.562ZM72.2453 153.256H71.2021L76.6604 143.241H77.6835L72.2453 153.256ZM76.9768 151.445C77.1832 151.656 77.4344 151.762 77.7306 151.762C78.0267 151.762 78.278 151.658 78.4844 151.452C78.6953 151.241 78.8007 150.988 78.8007 150.691C78.8007 150.395 78.6953 150.144 78.4844 149.938C78.278 149.727 78.0267 149.621 77.7306 149.621C77.4344 149.621 77.1809 149.727 76.97 149.938C76.7636 150.144 76.6604 150.395 76.6604 150.691C76.6604 150.988 76.7659 151.239 76.9768 151.445ZM70.4349 146.546C70.6413 146.756 70.8925 146.862 71.1887 146.862C71.4848 146.862 71.7361 146.759 71.9425 146.552C72.1533 146.341 72.2588 146.088 72.2588 145.792C72.2588 145.496 72.1533 145.244 71.9425 145.038C71.7361 144.827 71.4848 144.722 71.1887 144.722C70.8925 144.722 70.639 144.827 70.4281 145.038C70.2217 145.244 70.1185 145.496 70.1185 145.792C70.1185 146.088 70.224 146.339 70.4349 146.546Z" fill="white"/>
<circle cx="154.5" cy="158.5" r="26" fill="#FFFEFF" stroke="#CD5747" stroke-width="7"/>
<rect x="155" y="143" width="3" height="19" rx="1.5" fill="#42474C"/>
<rect x="144" y="162" width="3" height="14" rx="1.5" transform="rotate(-90 144 162)" fill="#42474C"/>
<defs>
<filter id="filter0_d_17_104" x="45.5135" y="45.5135" width="134.973" height="134.973" filterUnits="userSpaceOnUse" color-interpolation-filters="sRGB">
<feFlood flood-opacity="0" result="BackgroundImageFix"/>
<feColorMatrix in="SourceAlpha" type="matrix" values="0 0 0 0 0 0 0 0 0 0 0 0 0 0 0 0 0 0 127 0" result="hardAlpha"/>
<feOffset/>
<feGaussianBlur stdDeviation="3.24324"/>
<feComposite in2="hardAlpha" operator="out"/>
<feColorMatrix type="matrix" values="0 0 0 0 0 0 0 0 0 0 0 0 0 0 0 0 0 0 0.15 0"/>
<feBlend mode="normal" in2="BackgroundImageFix" result="effect1_dropShadow_17_104"/>
<feBlend mode="normal" in="SourceGraphic" in2="effect1_dropShadow_17_104" result="shape"/>
</filter>
</defs>
</svg>
